<svg xmlns="http://www.w3.org/2000/svg" width="1600" height="900" viewBox="0 0 1600 900">
  <defs>
    <linearGradient id="sky" x1="0%" y1="0%" x2="0%" y2="100%">
      <stop offset="0%" stop-color="#f3f4f6" />
      <stop offset="100%" stop-color="#e5e7eb" />
    </linearGradient>
    <linearGradient id="stone" x1="0%" y1="0%" x2="100%" y2="100%">
      <stop offset="0%" stop-color="#fdf2f2" />
      <stop offset="100%" stop-color="#fca5a5" />
    </linearGradient>
  </defs>
  <rect width="1600" height="900" fill="url(#sky)" />
  <g transform="translate(200 140)">
    <rect x="0" y="280" width="1200" height="320" rx="40" fill="#fee2e2" opacity="0.7" />
    <rect x="200" y="200" width="800" height="320" rx="32" fill="url(#stone)" />
    <rect x="520" y="120" width="160" height="320" rx="28" fill="#b91c1c" />
    <path d="M600 60l100 80H500z" fill="#7f1d1d" />
    <rect x="260" y="260" width="120" height="140" rx="16" fill="#fff1f2" />
    <rect x="520" y="260" width="120" height="140" rx="16" fill="#fff1f2" />
    <rect x="780" y="260" width="120" height="140" rx="16" fill="#fff1f2" />
    <rect x="560" y="160" width="80" height="110" fill="#fff7f7" />
    <path d="M600 160V120" stroke="#fef2f2" stroke-width="20" stroke-linecap="round" />
    <circle cx="340" cy="420" r="90" fill="#7f1d1d" opacity="0.1" />
    <circle cx="600" cy="420" r="90" fill="#7f1d1d" opacity="0.08" />
    <circle cx="860" cy="420" r="90" fill="#7f1d1d" opacity="0.1" />
  </g>
</svg>
